<?xml version="1.0" standalone="no"?>
<!DOCTYPE svg PUBLIC "-//W3C//DTD SVG 20010904//EN"
 "http://www.w3.org/TR/2001/REC-SVG-20010904/DTD/svg10.dtd">
<svg version="1.0" xmlns="http://www.w3.org/2000/svg"
 width="116.000000pt" height="87.000000pt" viewBox="0 0 116.000000 87.000000"
 preserveAspectRatio="xMidYMid meet">

<g transform="translate(0.000000,87.000000) scale(0.100000,-0.100000)"
fill="#000000" stroke="none">
<path d="M600 787 c-35 -11 -143 -108 -153 -137 -4 -13 -9 -13 -37 3 -17 9
-52 17 -77 17 -41 0 -51 -5 -89 -44 -35 -35 -44 -50 -44 -78 0 -31 -5 -37 -39
-53 -115 -51 -171 -184 -122 -290 23 -51 89 -111 138 -125 26 -8 161 -10 425
-8 l386 3 43 30 c24 17 57 52 73 78 68 110 13 264 -112 316 -28 12 -32 18 -32
50 0 47 -38 128 -81 170 -71 71 -183 98 -279 68z"/>
</g>
</svg>
